<svg width="24" height="24" viewBox="0 0 24 24" fill="none" xmlns="http://www.w3.org/2000/svg">
<path d="M17.833 4.50391L17.4092 4.43848C16.5457 4.30587 15.5761 4.16699 14.667 4.16699C13.1993 4.16699 11.8986 4.61596 10.9619 5.51465C10.022 6.41656 9.5 7.72219 9.5 9.33301V11.5H6.5V15.833H9.5V23.3857C4.3577 22.194 0.500178 17.5775 0.5 12.0674C0.5 5.7039 5.67876 0.5 12 0.5C18.3212 0.5 23.5 5.7039 23.5 12.0674C23.4998 17.5785 19.6423 22.194 14.5 23.3857V15.833H17.0938L17.1611 15.4121L17.6934 12.0791L17.7861 11.5H14.5V9.66699C14.5 9.24277 14.5791 8.97808 14.7236 8.81543C14.8581 8.66408 15.1416 8.50003 15.7998 8.5H17.833V4.50391Z" fill="white" stroke="black"/>
</svg>
